<svg xmlns="http://www.w3.org/2000/svg" viewBox="0 0 60 60" width="60" height="60">
  <defs>
    <linearGradient id="tealGrad" x1="0%" y1="0%" x2="100%" y2="100%">
      <stop offset="0%" style="stop-color:#14B8A6;stop-opacity:1" />
      <stop offset="100%" style="stop-color:#0D9488;stop-opacity:1" />
    </linearGradient>
    <linearGradient id="blueGrad" x1="0%" y1="0%" x2="100%" y2="100%">
      <stop offset="0%" style="stop-color:#3B82F6;stop-opacity:1" />
      <stop offset="100%" style="stop-color:#1D4ED8;stop-opacity:1" />
    </linearGradient>
  </defs>
  
  <!-- WiFi/Signal arcs -->
  <path d="M 18 8 A 14 14 0 0 1 42 8" fill="none" stroke="url(#tealGrad)" stroke-width="3" stroke-linecap="round"/>
  <path d="M 22 14 A 9 9 0 0 1 38 14" fill="none" stroke="url(#tealGrad)" stroke-width="3" stroke-linecap="round"/>
  <path d="M 26 20 A 5 5 0 0 1 34 20" fill="none" stroke="url(#tealGrad)" stroke-width="3" stroke-linecap="round"/>
  
  <!-- Medical Cross -->
  <rect x="25" y="23" width="10" height="24" rx="2" fill="url(#tealGrad)"/>
  <rect x="18" y="30" width="24" height="10" rx="2" fill="url(#tealGrad)"/>
  
  <!-- Bridge arches -->
  <path d="M 8 52 Q 18 42 28 52" fill="none" stroke="url(#blueGrad)" stroke-width="3.5" stroke-linecap="round"/>
  <path d="M 28 52 Q 38 42 48 52" fill="none" stroke="url(#blueGrad)" stroke-width="3.5" stroke-linecap="round"/>
  
  <!-- Bridge base -->
  <line x1="5" y1="55" x2="55" y2="55" stroke="url(#blueGrad)" stroke-width="3.5" stroke-linecap="round"/>
</svg>
